<svg width="26" height="26" viewBox="0 0 26 26" fill="none" xmlns="http://www.w3.org/2000/svg">
<g id="Iconly/Bulk/Home">
<g id="Home">
<path id="Home_2" d="M9.90572 22.5139V19.1915C9.9057 18.3496 10.5903 17.6656 11.4383 17.6603H14.552C15.4038 17.6603 16.0943 18.3458 16.0943 19.1915V22.5043C16.0943 23.2345 16.6877 23.828 17.4232 23.8333H19.5475C20.5396 23.8358 21.492 23.4463 22.1944 22.7507C22.8969 22.0551 23.2917 21.1106 23.2917 20.1256V10.688C23.2916 9.8923 22.9364 9.13756 22.3217 8.62709L15.1049 2.89708C13.8434 1.89484 12.0417 1.92722 10.8175 2.97413L3.75594 8.62709C3.11215 9.12252 2.72736 9.87949 2.70834 10.688V20.116C2.70834 22.169 4.38467 23.8333 6.45253 23.8333H8.52832C8.88245 23.8358 9.22295 23.698 9.47427 23.4503C9.72559 23.2025 9.86693 22.8655 9.86692 22.5139H9.90572Z" fill="url(#paint0_linear)"/>
</g>
</g>
<defs>
<linearGradient id="paint0_linear" x1="18.643" y1="0.962912" x2="32.0182" y2="11.3603" gradientUnits="userSpaceOnUse">
<stop stop-color="#0575E6"/>
<stop offset="1" stop-color="#021B79"/>
</linearGradient>
</defs>
</svg>
